<?xml version="1.0" encoding="utf-8" ?><svg xmlns="http://www.w3.org/2000/svg" xmlns:xlink="http://www.w3.org/1999/xlink" width="492" height="492" viewBox="0 0 492 492"><clipPath id="cl_3"><rect width="492" height="492"/></clipPath><g clip-path="url(#cl_3)"><path fill="#D9775A" transform="translate(-267 -173)" d="M509.756 464.724C513.897 464.356 520.567 464.997 524.745 465.429C551.201 468.118 576.08 479.284 595.672 497.265C639.079 536.449 630.418 573.129 633.058 623.476C606.184 624.132 583.751 621.253 560.778 605.905C529.805 585.212 519.313 561.961 511.976 527.231L511.943 527.162L511.612 527.104C510.834 531.546 510.463 536.089 509.512 540.483C505.432 558.669 496.697 575.482 484.164 589.277C456.482 619.944 429.105 622.48 391.156 624.55C390.9 623.115 390.655 621.444 390.593 620.006C388.693 576.492 390.023 537.707 421.699 503.643C445.879 477.64 475.075 466.62 509.756 464.724Z"/><path fill="#D9775A" transform="translate(-267 -173)" d="M619.708 222.724C622.664 222.395 631.048 223.146 634.068 223.502C633.507 256.029 637.578 282.334 622.582 312.779C608.102 341.799 582.587 363.798 551.751 373.847C520.007 384.196 485.444 381.432 455.749 366.168C426.335 351.409 406.178 325.566 395.842 294.619C389.193 271.31 390.949 247.539 390.97 223.569C417.657 223.086 436.147 224.09 460.146 238.645C482.561 252.183 499.347 273.344 507.429 298.252C509.545 304.703 511.01 312.764 512.688 319.544C513.262 298.728 525.422 273.87 539.294 258.633C561.686 234.037 587.087 224.267 619.708 222.724Z"/><path fill="#D9775A" transform="translate(-267 -173)" d="M314.255 260.848C315.046 260.873 316.266 261.006 317.017 261.253C341.757 269.365 366.49 294.209 378.803 315.891C385.573 327.771 390.334 340.687 392.895 354.119C397.156 377.141 394.644 398.66 395.576 420.541C397.956 476.364 395.693 524.272 350.002 563.763C338.912 573.348 330.299 579.134 317.235 586.462C309.25 579.149 303.699 570.625 298.68 561.184C277.775 517.792 294.946 465.352 334.118 438.907C349.903 428.252 370.367 423.911 389.085 422.616C383.201 421.327 376.601 420.449 370.577 419.314C311.263 408.136 274.993 347.967 295.874 290.712C300.278 278.637 306.065 270.759 314.255 260.848Z"/><path fill="#D9775A" transform="translate(-267 -173)" d="M707.998 259.909C718.11 265.051 729.594 292.864 732.021 303.973C737.256 327.933 732.598 354.012 719.49 374.76C705.872 396.313 684.125 411.516 659.556 417.947C651.624 420.015 643.452 420.882 635.435 422.714C648.015 423.59 657.787 425.113 669.678 429.643C695.207 439.292 715.789 458.79 726.804 483.759C737.666 508.303 735.79 535.041 726.191 559.62C722.593 568.56 715.439 579.023 708.544 585.682C681.423 573.969 657.732 551.444 644.053 525.36C637.348 512.474 632.695 498.621 630.261 484.3C627.15 465.932 628.324 448.56 628.075 430.25C627.656 399.499 625.323 372.087 634.86 342.144C647.556 302.287 672.141 278.74 707.998 259.909Z"/><path fill="#D9775A" transform="translate(-267 -173)" d="M517.135 665.406C520.855 666.06 529.97 665.979 534.147 666.094C538.108 670.069 543.62 677.869 547.088 682.5C554.403 692.183 561.57 701.978 568.588 711.879C567.986 696.293 568.218 681.527 568.093 665.972L588.114 665.986C586.672 673.232 586.88 691.744 586.955 699.685C587.082 713.23 586.632 728.613 587.284 742.05C581.769 742.452 575.728 742.14 570.162 741.978C565.863 737.776 560.112 729.477 556.348 724.361L535.395 695.772L535.522 742.088C529.388 741.893 523.059 741.648 516.981 742.523C516.98 727.534 516.975 712.51 516.889 697.531C516.846 689.914 515.825 672.227 517.135 665.406Z"/><path fill="#D9775A" transform="translate(-267 -173)" d="M308.14 665.203C322.392 663.29 332.667 669.294 343.376 677.463C339.761 681.159 336.03 684.739 332.187 688.197C320.047 679.957 304.122 675.722 293.542 689.265C289.331 694.702 287.579 701.65 288.71 708.434C289.645 714.263 292.696 719.551 297.545 722.943C307.655 730.015 316.751 727.02 327.587 725.207C327.346 721.074 327.363 717.166 327.364 713.035L307.066 713.511C307.066 708.333 307.027 703.155 306.947 697.977C310.039 697.88 313.319 697.64 316.424 697.464C323.326 698.327 337.545 697.975 345.023 697.982C344.393 709.052 344.315 720.147 344.789 731.225C328.625 745.564 300.904 748.578 283.568 734.615C275.521 728.211 270.352 718.87 269.2 708.651C267.752 695.156 273.585 679.52 285.325 672.085C292.326 667.651 300.035 666.04 308.14 665.203Z"/><path fill="#D9775A" transform="translate(-267 -173)" d="M681.992 665.949L743.084 665.956L743.122 681.568C729.066 681.381 715.009 681.386 700.954 681.583C701.253 686.329 701.378 691.26 701.565 696.026C714.086 695.927 726.433 696.205 739.031 696.006C738.787 702.071 738.681 705.857 738.94 711.918C727.589 711.534 716.231 711.414 704.875 711.557C703.183 711.515 702.999 711.507 701.239 711.805C700.619 715.008 701.31 723.045 701.544 726.449C715.308 726.491 731.469 726.794 745.032 726.121C744.852 731.574 744.845 737.03 745.011 742.483C724.035 741.743 703.039 741.753 682.064 742.512L681.992 665.949Z"/><path fill="#D9775A" transform="translate(-267 -173)" d="M457.251 665.304C462.146 665.627 468.433 665.49 473.434 665.519C477.389 672.591 480.183 680.187 483.616 687.434C491.968 705.065 499.197 724.615 507.523 742.042L487.834 742.06C485.629 738.049 483.092 731.279 481.618 727.028L471.505 727.045C463.784 727.025 455.66 726.697 447.921 726.486C446.916 730.773 443.853 737.926 442.06 742.092C435.436 741.975 428.811 741.972 422.187 742.085C431.452 719.32 445.835 687.726 457.251 665.304ZM466.625 711.573L475.568 711.585C473.231 706.245 467.367 691.795 464.518 687.791C461.357 696.026 457.745 703.58 454.517 711.612L466.625 711.573Z"/><path fill="#D9775A" transform="translate(-267 -173)" d="M640.796 664.219C652.963 662.901 663.861 670.538 673.026 677.422C668.192 681.526 664.804 684.769 660.684 689.568C657 686.416 652.279 683.302 647.707 681.753C619.239 672.108 607.349 717.861 634.426 725.992C644.124 728.905 652.722 723.737 660.703 718.813L665.241 722.389L673.637 729.206C664.931 737.102 658.695 742.165 646.678 743.468C624.297 745.713 601.903 733.011 599.964 709.154C598.285 688.494 606.864 671.951 627.421 666.282C632.126 664.984 635.914 664.582 640.796 664.219Z"/><path fill="#D9775A" transform="translate(-267 -173)" d="M358.17 665.975L378.1 665.976C376.274 681.678 376.897 709.882 377.492 726.002L414.979 725.944C415.333 731.585 415.424 736.725 415.492 742.369C396.104 742.729 378.69 741.752 358.382 742.648C357.824 735.297 358.092 724.655 358.087 717.161L358.17 665.975Z"/></g></svg>