<?xml version="1.0" encoding="utf-8" ?><svg xmlns="http://www.w3.org/2000/svg" xmlns:xlink="http://www.w3.org/1999/xlink" width="500" height="495" viewBox="0 0 500 495"><clipPath id="cl_4"><rect x="-0.00012207031" width="500" height="495"/></clipPath><g clip-path="url(#cl_4)"><path fill="#262624" transform="translate(-264 -167)" d="M0 0L1024 0L1024 1024L0 1024L0 0Z"/><path fill="#D97757" transform="translate(-264 -167)" d="M504.813 465.21C507.695 464.952 510.712 464.941 513.613 464.939C545.469 465.199 575.954 477.934 598.529 500.412C636.339 538.386 632.419 574.605 632.336 622.916C609.616 627.083 577.343 617.924 558.833 604.549C531.843 585.047 518.698 561.693 512.812 529.698L511.847 521.981C511.122 529.271 510.514 536.813 508.501 543.857C493.051 597.922 445.722 627.523 391.464 623.669C391.45 578.92 386.911 545.459 418.679 507.851C440.667 481.82 470.909 467.962 504.813 465.21Z"/><path fill="#D97757" transform="translate(-264 -167)" d="M512.964 318.892C514.368 294.082 528.887 267.313 547.464 251.213C571.023 230.794 597.196 221.571 628.112 223.487C629.922 223.6 631.728 223.774 633.527 224.009C633.613 237.756 634.363 260.042 633.212 273.077C630.762 299.681 619.082 324.59 600.194 343.486C576.994 366.705 545.556 379.809 512.733 379.942C481.224 379.873 448.557 367.009 426.306 344.499C406.871 325.216 394.731 299.785 391.957 272.548C390.804 260.722 391.392 237.004 391.458 224.248C420.985 221.057 448.164 228.328 471.49 246.984C493.532 264.612 509.395 291.459 511.619 319.885C512.581 319.71 512.112 319.862 512.964 318.892Z"/><path fill="#75767A" transform="translate(-264 -167)" d="M511.619 319.885C512.581 319.71 512.112 319.862 512.964 318.892C512.742 321.781 512.467 325.131 512.457 328.013L511.564 324.215L511.619 319.885Z"/><path fill="#8D5C5C" transform="translate(-264 -167)" d="M511.564 324.215L512.457 328.013C512.467 329.409 512.593 328.917 511.978 330.169C511.287 327.51 511.418 327.034 511.564 324.215Z"/><path fill="#D97757" transform="translate(-264 -167)" d="M315.002 261.036C341.503 269.195 366.318 294.197 379.556 318.061C386.373 330.633 391.032 344.259 393.342 358.372C396.049 374.876 395.169 403.11 395.14 420.829C395.112 437.347 396.025 461.672 394.657 477.59C393.963 485.637 392.478 493.597 390.224 501.353C381.641 530.909 360.034 557.997 334.897 575.484C329.086 579.527 323.514 582.505 317.327 585.88C308.505 577.848 301.559 567.973 296.982 556.955C293.468 547.668 291.355 539.806 290.477 529.821C288.293 504.26 296.379 478.881 312.948 459.295C328.427 440.81 349.953 428.406 373.707 424.283C380.673 423.113 387.694 423.007 394.763 422.419C388.989 421.46 382.535 421.01 376.69 420.196C329.29 413.597 291.129 375.46 290.519 326.501C290.215 302.064 297.596 279.2 315.002 261.036Z"/><path fill="#D97757" transform="translate(-264 -167)" d="M708.501 260.496C708.559 260.535 708.617 260.573 708.676 260.612C721.881 273.603 730.653 293.845 733.011 311.562C736.455 336.524 729.741 361.825 714.373 381.796C698.805 401.834 676.85 414.641 652.106 419.466C645.245 420.804 639.063 421.324 632.174 422.219C646.268 424.353 652.988 423.695 667.578 428.96C693.18 438.032 714.031 457.062 725.398 481.731C736.444 505.794 736.201 532.267 727.021 556.828C722.223 568.397 716.52 576.446 708.154 585.581C677.229 570.357 656.488 551.267 641.718 519.622C636.055 507.583 632.164 494.789 630.165 481.636C627.727 465.487 628.481 440.437 628.471 423.423C628.461 406.724 627.738 384.063 629.649 368.038C631.01 357.265 633.583 346.68 637.317 336.484C649.664 302.718 676.05 275.521 708.501 260.496Z"/><path fill="#D97757" transform="translate(-264 -167)" d="M636.302 664.686C650.668 662.687 662.158 667.862 672.147 677.665L660.408 689.284C655.417 684.753 651.643 681.989 644.75 680.813C623.95 677.265 612.25 699.617 621.8 716.669C627.926 727.607 644.147 730.072 654.337 723.798C656.139 722.689 658.63 720.351 660.295 718.881L661.08 718.907C664.526 722.211 668.972 725.85 672.64 729.009L672.249 729.541C653.449 754.683 603.197 744.734 600.327 710.386C598.139 684.202 610.344 667.817 636.302 664.686Z"/></g></svg>